<svg width="36" height="36" viewBox="0 0 36 36" fill="none" xmlns="http://www.w3.org/2000/svg">
<g clip-path="url(#clip0_27_20917)">
<path d="M35.7036 3.19578C34.9491 1.16059 32.9686 -0.0928748 30.8129 0.01495C28.8458 0.136253 27.0539 1.53798 26.4746 3.45187C25.8817 5.39271 26.5554 7.50877 28.1452 8.7218C28.4416 8.93745 28.5629 9.19354 28.5629 9.55744C28.5494 10.5548 28.5494 11.5522 28.5494 12.5631V13.8704C28.5494 14.8678 27.9701 15.4339 26.9731 15.4339H25.6527C24.6287 15.4339 23.6048 15.4339 22.5808 15.4339C22.2305 15.4339 22.0284 15.2722 21.8802 15.0969C21.5838 14.76 21.247 14.423 20.8967 14.113C20.6677 13.9243 20.5734 13.7087 20.5734 13.4391C20.5868 12.1183 20.5868 10.7974 20.5734 9.47658C20.5734 9.16658 20.6811 8.96441 20.9237 8.76224C22.5404 7.46834 23.1602 5.83749 22.756 3.91012C22.3383 1.88841 21.0853 0.621464 19.0374 0.136253C16.8683 -0.375915 14.5913 0.729289 13.6078 2.76448C12.6377 4.7862 13.1901 7.26617 14.9416 8.65441C15.2919 8.92397 15.4266 9.22049 15.4132 9.66527C15.3862 10.9053 15.3997 12.1722 15.4132 13.3987C15.4132 13.6952 15.3189 13.9109 15.0898 14.113C14.8743 14.3017 14.6722 14.5174 14.4701 14.7196C14.3353 14.8678 14.1871 15.0161 14.0389 15.1509C13.9581 15.2317 13.7425 15.4069 13.5 15.4069C11.8832 15.4204 10.2799 15.4204 8.66317 15.4069H7.85479C7.81437 15.4069 7.77395 15.4069 7.73353 15.3935L7.53144 15.3665L7.46407 15.0296C7.46407 14.9487 7.4506 14.8678 7.4506 14.7869V13.1561C7.4506 11.9296 7.4506 10.7031 7.4506 9.47658C7.4506 9.16658 7.55838 8.95093 7.8009 8.76224C9.53892 7.44138 10.1991 5.20402 9.41766 3.16883C8.66317 1.16059 6.62874 -0.133309 4.51347 0.01495C2.29042 0.176687 0.417665 1.87493 0.0673653 4.07186C0.0538922 4.13925 0.0404192 4.22012 0.0134731 4.28751L0 4.34142V5.44662L0.0538922 5.63532C0.0943114 5.79705 0.121257 5.94531 0.161677 6.10705C0.458084 7.19878 1.0509 8.07485 1.8997 8.73528C2.16916 8.92397 2.29042 9.1531 2.29042 9.49005C2.27695 15.1643 2.29042 20.8521 2.29042 26.5264C2.29042 26.8633 2.18263 27.079 1.92665 27.2677C0.916168 28.0224 0.296407 29.0603 0.0673653 30.3407C0.0538922 30.4081 0.0404192 30.4889 0.0134731 30.5563L0 30.5968L0.0269461 31.7828C0.0538922 31.8907 0.0808383 31.985 0.0943114 32.0793C0.538922 34.1415 2.06138 35.5837 4.17665 35.9341C4.24401 35.9476 4.2979 35.9745 4.3518 35.988H5.41617L5.63174 35.9476C5.79341 35.9206 5.94162 35.8802 6.08982 35.8397C8.07036 35.2467 9.26946 33.9663 9.63323 32.0524C9.99701 30.1385 9.39072 28.5346 7.81437 27.2542C7.55838 27.052 7.4506 26.8229 7.4506 26.5129C7.46407 25.1786 7.4506 23.8577 7.4506 22.5234V20.6095L7.81437 20.5825C7.90868 20.5825 7.97605 20.5691 8.05689 20.5691H9.63323C10.8862 20.5691 12.1527 20.5691 13.4057 20.5691C13.7695 20.5691 13.9581 20.7308 14.1063 20.906C14.4027 21.243 14.7395 21.5799 15.0898 21.8764C15.3189 22.0786 15.4132 22.2808 15.4132 22.5503C15.3997 23.8712 15.3997 25.192 15.4132 26.5129C15.4132 26.8364 15.3054 27.052 15.0629 27.2272C13.4596 28.4403 12.759 30.4215 13.2844 32.295C13.8503 34.3032 15.1707 35.5163 17.2455 35.9206C17.3129 35.9341 17.3668 35.961 17.4072 35.9745H18.5254C18.6467 35.9341 18.768 35.9071 18.9027 35.8802C19.1856 35.8128 19.4686 35.7454 19.7246 35.6376C21.4626 34.9367 22.5 33.6967 22.7829 31.9446C23.0928 30.0711 22.4731 28.4807 20.9371 27.2407C20.6811 27.0251 20.5734 26.8094 20.5734 26.4994C20.5868 25.192 20.5868 23.8847 20.5734 22.5773C20.5734 22.1999 20.7485 22.0112 20.9237 21.836C21.2605 21.5395 21.5838 21.216 21.8802 20.879C22.0823 20.6499 22.2979 20.5421 22.5808 20.5421C22.5808 20.5421 22.5808 20.5421 22.5943 20.5421C24.0629 20.5556 25.5449 20.5421 27.0135 20.5421C30.3413 20.5421 32.9955 18.3452 33.6018 15.0835C33.6826 14.6522 33.6961 14.1939 33.6961 13.857C33.7096 12.3878 33.7096 10.9053 33.6961 9.43614C33.6961 9.20701 33.7365 8.95093 34.0329 8.70832C35.7844 7.44138 36.4446 5.20402 35.7036 3.19578ZM32.7395 7.52225C32.1467 7.84573 31.9446 8.23659 31.9581 8.95093C31.985 10.164 31.985 11.4039 31.9716 12.6035V13.8839C31.9716 16.7143 29.8428 18.8439 27.0135 18.8439H26.3129C24.8039 18.8439 23.2814 18.8439 21.7725 18.8439H21.759C21.2874 18.8439 20.991 19.0191 20.7754 19.4369C20.479 20.0434 20.021 20.5017 19.4147 20.7982C19.0105 21.0004 18.8353 21.2969 18.8353 21.7956C18.8488 23.6421 18.8488 25.4481 18.8353 27.2542C18.8353 27.8203 19.024 28.1572 19.509 28.4133C20.8832 29.1546 21.476 30.7585 20.9237 32.2411C20.3847 33.6832 18.8892 34.5054 17.3802 34.1954C15.8847 33.8989 14.8069 32.5241 14.8877 31.0011C14.9416 29.8555 15.494 28.9659 16.4775 28.4268C16.976 28.1572 17.1781 27.8068 17.1647 27.2407C17.1377 25.4886 17.1512 23.8038 17.1647 21.7821C17.1647 21.2969 16.9895 21.0004 16.5719 20.7847C15.979 20.4882 15.521 20.0299 15.2111 19.4234C15.009 19.0191 14.7126 18.8439 14.2275 18.8439H14.2141C13.3249 18.8573 12.4491 18.8573 11.5599 18.8439H6.79042C6.00898 18.8439 5.6991 19.1404 5.6991 19.9221V22.1999C5.6991 23.9116 5.6991 25.6099 5.6991 27.3081C5.6991 27.8337 5.87425 28.1437 6.33233 28.3863C7.61228 29.0737 8.24551 30.5294 7.88174 31.9311C7.51796 33.3059 6.27844 34.2628 4.8503 34.2628C4.83683 34.2628 4.83683 34.2628 4.82335 34.2628C3.43563 34.2493 2.20958 33.2924 1.83234 31.9446C1.45509 30.5698 2.07485 29.1007 3.28743 28.4537C3.83982 28.1707 4.04192 27.8068 4.04192 27.1733C4.02844 21.4182 4.01497 15.4069 4.04192 8.76224C4.04192 8.18268 3.85329 7.8592 3.36826 7.60312C2.11527 6.92921 1.48204 5.48706 1.84581 4.09881C2.19611 2.72405 3.42216 1.75362 4.8503 1.75362H4.86377C6.26497 1.75362 7.50449 2.69709 7.88174 4.05838C8.27246 5.43315 7.65269 6.91574 6.42665 7.57616C5.9012 7.8592 5.6991 8.20963 5.6991 8.81615C5.71257 10.5144 5.71257 12.1992 5.71257 13.8974V16.0943C5.71257 16.8356 6.03593 17.1591 6.77695 17.1591H9.04042C10.765 17.1591 12.4895 17.1591 14.2006 17.1591C14.2006 17.1591 14.2006 17.1591 14.2141 17.1591C14.726 17.1591 15.0359 16.9704 15.2515 16.5391C15.5344 15.9595 15.979 15.5282 16.5584 15.2317C16.976 15.0161 17.1647 14.7061 17.1647 14.2074C17.1512 12.1587 17.1512 10.3527 17.1647 8.66789C17.1647 8.15572 16.9895 7.84573 16.518 7.58964C15.1437 6.84835 14.524 5.24445 15.0629 3.77534C15.5883 2.3197 17.0704 1.48406 18.5928 1.78058C20.1153 2.0771 21.1931 3.45187 21.1257 4.98837C21.0719 6.14749 20.506 7.03704 19.509 7.57616C19.0374 7.83225 18.8353 8.15572 18.8488 8.70832C18.8623 10.3931 18.8623 12.1587 18.8488 14.14C18.8488 14.6791 19.024 15.0026 19.4686 15.2182C20.0479 15.5013 20.479 15.9461 20.7754 16.5391C20.991 16.9704 21.3009 17.1591 21.7859 17.1456C22.8099 17.1456 23.8473 17.1456 24.8713 17.1456C25.5853 17.1456 26.3129 17.1456 27.0269 17.1456C28.9132 17.1456 30.2874 15.7708 30.2874 13.8704C30.2874 13.2504 30.2874 12.617 30.2874 11.997C30.2874 10.9053 30.2874 9.81353 30.3009 8.73528C30.3009 8.1692 30.1123 7.83225 29.6138 7.57616C28.3743 6.92921 27.7545 5.48706 28.0913 4.08534C28.4147 2.751 29.6677 1.7671 31.0554 1.74015C32.4701 1.74015 33.7231 2.64318 34.1138 4.00447C34.518 5.39271 33.9386 6.8753 32.7395 7.52225Z" fill="#F36F20"/>
</g>
<defs>
<clipPath id="clip0_27_20917">
<rect width="36" height="36" fill="white"/>
</clipPath>
</defs>
</svg>
