<svg width="47" height="30" viewBox="0 0 47 30" fill="none" xmlns="http://www.w3.org/2000/svg">
<g clip-path="url(#clip0_27_20919)">
<path d="M44.8727 12.2365C44.7183 12.0934 44.4387 12.0266 44.2113 12.016C43.5607 11.9867 42.9066 12.0031 42.2548 12.0066C41.49 12.0101 41.2274 12.2659 41.2237 13.0202C41.2188 13.8249 41.2225 14.6309 41.2225 15.4356C41.2225 15.7805 41.2225 16.1242 41.2225 16.4726H39.6685C39.6685 16.2943 39.6685 16.1371 39.6685 15.9799C39.6685 14.4725 39.6709 12.9639 39.6673 11.4564C39.6661 10.7596 39.4047 10.5121 38.6751 10.5097C37.2184 10.5062 35.7617 10.5003 34.3062 10.5156C34.0375 10.5179 33.7882 10.3889 33.6411 10.1719C32.824 8.96004 31.9777 7.76581 31.1618 6.55281C30.904 6.17038 30.5927 5.99089 30.1124 6.00145C29.1117 6.02374 28.1098 6.00849 27.109 6.00849C26.6579 6.00849 26.2056 6.00849 25.7362 6.00849V4.5069C25.9527 4.5069 26.1326 4.5069 26.3126 4.5069C27.8447 4.5069 29.3768 4.51159 30.9101 4.50456C31.6287 4.50104 31.9084 4.22888 31.9132 3.54847C31.9193 2.68506 31.9205 1.82048 31.9132 0.957065C31.9084 0.283698 31.6178 0.00332433 30.9052 0.00215122C25.8834 -0.00136812 20.8615 -0.00136812 15.8397 0.00215122C15.1016 0.00215122 14.8195 0.281352 14.8146 0.985219C14.8098 1.80522 14.8122 2.62523 14.8134 3.44524C14.8146 4.25116 15.0676 4.50338 15.8932 4.50573C17.4253 4.51042 18.9574 4.5069 20.4907 4.50808C20.6524 4.50808 20.8153 4.52098 20.988 4.52802V6.00849C19.5094 6.00849 18.0697 6.01904 16.6313 6.00262C16.157 5.99675 15.836 6.15513 15.577 6.54343C14.7782 7.73413 13.9404 8.90256 13.1439 10.0944C12.9409 10.3983 12.7317 10.5273 12.3463 10.5191C11.1632 10.4921 9.98006 10.5062 8.79694 10.5109C8.11115 10.5132 7.83757 10.7772 7.82419 11.4447C7.81446 11.9573 7.82176 12.47 7.82176 12.9815C7.82176 13.8871 7.82176 14.7916 7.82176 15.716H6.26535C6.26535 15.5236 6.26535 15.3641 6.26535 15.2057C6.26535 13.961 6.26778 12.7175 6.26414 11.4728C6.2617 10.7643 6.00636 10.5132 5.28773 10.5097C4.37699 10.505 3.46747 10.5191 2.55673 10.5039C2.1506 10.4968 1.86485 10.6399 1.64598 10.9672C1.20095 11.63 0.725516 12.2753 0.296288 12.9463C0.161319 13.1574 0.0993057 13.4284 0.0628275 13.6806C-0.16577 15.2362 0.216036 16.6169 1.30917 17.8159C1.5025 18.0282 1.59127 18.3954 1.59492 18.6933C1.61923 20.6114 1.60707 22.5283 1.60829 24.4463C1.60951 25.2346 1.85634 25.4833 2.654 25.4892C3.51854 25.4951 4.38307 25.4951 5.24882 25.4892C6.01 25.4833 6.2617 25.2405 6.26414 24.5143C6.26778 23.2556 6.26414 21.9968 6.26657 20.7369C6.26657 20.5832 6.27994 20.4307 6.28724 20.2817H7.81933C7.81933 20.4694 7.81933 20.6266 7.81933 20.785C7.81933 22.0004 7.81689 23.2157 7.82054 24.4299C7.82297 25.2381 8.07224 25.4857 8.89908 25.4892C10.081 25.4939 11.2617 25.4997 12.4423 25.4833C12.6977 25.4798 12.936 25.6018 13.0746 25.8083C13.9027 27.033 14.7575 28.2425 15.5856 29.4672C15.8348 29.8367 16.1473 29.9998 16.6021 29.9998C23.9452 29.9939 31.2882 29.9963 38.6313 29.9939C39.2028 29.9939 39.6661 29.547 39.6673 28.9956C39.6697 27.0013 39.6685 25.0082 39.6685 23.0139C39.6685 22.8567 39.6685 22.6995 39.6685 22.5177H41.2225C41.2225 22.7077 41.2225 22.8661 41.2225 23.0257C41.2225 24.519 41.2188 26.0124 41.2249 27.5058C41.2274 28.2143 41.5107 28.4841 42.2451 28.4935C42.8664 28.5017 43.4902 28.51 44.1104 28.4877C44.3426 28.4795 44.6417 28.4501 44.7901 28.3117C45.4394 27.704 46.0449 27.0529 46.6663 26.4171V14.0326C46.0717 13.4296 45.4917 12.8137 44.8727 12.2365ZM4.68827 23.9595H3.15862C3.15862 23.8058 3.15862 23.6533 3.15862 23.4996C3.15862 21.7446 3.17078 19.9896 3.14646 18.2358C3.14281 17.9261 2.9969 17.5965 2.84855 17.3196C2.6844 17.0111 2.47283 16.7307 2.24423 16.4633C1.82473 15.9752 1.60343 15.3793 1.58154 14.7482C1.55965 14.0842 1.72988 13.5786 2.09467 13.0202C2.30867 12.6941 2.48134 12.253 2.85585 12.0641C3.26197 11.8588 3.86143 12.009 4.37699 12.0066C4.46576 12.0054 4.55574 12.0148 4.68949 12.0207V23.9595H4.68827ZM7.77798 18.7239H6.2921V17.2856H7.77798V18.7239ZM16.3881 2.96074V1.53306H30.3264V2.96191H16.3881V2.96074ZM24.1142 4.50925V5.97329H22.5857C22.5857 5.47824 22.5675 5.00665 22.6137 4.53623C23.1037 4.49165 23.5913 4.50925 24.1142 4.50925ZM34.9835 28.4959C34.7853 28.4959 34.6211 28.4959 34.457 28.4959C28.7384 28.4959 23.0186 28.4924 17.3 28.5041C16.9207 28.5053 16.7018 28.3962 16.4963 28.0865C15.7278 26.9286 14.9071 25.8036 14.1447 24.6422C13.8334 24.1683 13.4601 23.9594 12.8764 23.9782C11.8915 24.0099 10.9042 23.9876 9.91804 23.9876C9.75511 23.9876 9.59217 23.9876 9.40248 23.9876V12.0054C10.3424 12.0054 11.2629 12.0078 12.1833 12.0054C13.9051 12.0007 13.561 12.1486 14.5046 10.8042C15.2013 9.81172 15.8908 8.81223 16.568 7.80687C16.7176 7.58398 16.8817 7.50303 17.1566 7.50303C21.2981 7.51124 25.4396 7.51124 29.5811 7.50303C29.8595 7.50186 30.0164 7.59453 30.1647 7.81391C30.9855 9.02573 31.8342 10.2211 32.6477 11.4377C32.9261 11.8541 33.2678 12.0441 33.7785 12.0101C34.1688 11.9843 34.5628 12.0054 34.9859 12.0054V28.4959H34.9835ZM38.0902 28.4701H36.5983V12.0266H38.0902V28.4701ZM41.197 20.9645H39.7026V18.0235H41.197V20.9645ZM45.1062 25.6182C45.105 25.7965 44.9822 25.9854 44.8813 26.1485C44.8059 26.2705 44.6502 26.3444 44.5688 26.464C44.131 27.1081 43.4866 27.0307 42.802 26.9614V13.5504C43.838 13.3932 44.6113 13.7287 45.0624 14.5311C45.1159 14.625 45.1135 14.7564 45.1135 14.8702C45.1159 18.4529 45.1184 22.0355 45.1062 25.6182Z" fill="#F36F20"/>
<path d="M10.9604 22.4675C11.4699 22.4675 11.9502 22.4675 12.4512 22.4675C12.4512 19.4432 12.4512 16.4506 12.4512 13.4404C11.9441 13.4404 11.4772 13.4404 10.9604 13.4404C10.9604 16.48 10.9604 19.4585 10.9604 22.4675Z" fill="#F36F20"/>
</g>
<defs>
<clipPath id="clip0_27_20919">
<rect width="46.6667" height="30" fill="white"/>
</clipPath>
</defs>
</svg>
