<svg width="36" height="36" viewBox="0 0 36 36" fill="none" xmlns="http://www.w3.org/2000/svg">
<g clip-path="url(#clip0_27_20928)">
<path d="M0 31.9221C0 23.5788 0 15.2347 0 6.89142C0.020625 6.83788 0.0496875 6.78528 0.06 6.72987C0.478125 4.39586 2.3475 2.82076 4.71375 2.81419C5.65031 2.81137 6.58781 2.81419 7.52437 2.81419C7.63594 2.81419 7.7475 2.81419 7.87594 2.81419C7.87594 2.22528 7.87312 1.6871 7.87687 1.14986C7.88062 0.687752 8.085 0.337416 8.49656 0.126088C9.23906 -0.253364 10.0988 0.269791 10.1213 1.12074C10.1362 1.67771 10.1241 2.23562 10.1241 2.78977C15.3994 2.78977 20.6269 2.78977 25.8488 2.78977C25.86 2.74374 25.8703 2.72214 25.8703 2.6996C25.8722 2.21965 25.8722 1.7397 25.8741 1.25975C25.8769 0.512114 26.3316 0.00398697 26.9963 0.00304773C27.6591 0.00210849 28.1203 0.513054 28.1231 1.25693C28.125 1.76787 28.1231 2.27882 28.1231 2.81512C29.2528 2.81512 30.3403 2.80573 31.4269 2.817C33.5325 2.83767 35.3681 4.30851 35.8622 6.35417C35.9053 6.53357 35.9522 6.71296 35.9981 6.89235C35.9981 15.2356 35.9981 23.5798 35.9981 31.923C35.9775 31.9756 35.9475 32.0273 35.9381 32.0818C35.6231 33.8156 34.6425 35.0169 33.0206 35.6856C32.67 35.8303 32.2884 35.8979 31.9209 36.0012C22.6397 36.0012 13.3584 36.0012 4.07719 36.0012C4.0125 35.9796 3.94969 35.9495 3.88312 35.9364C1.98375 35.5569 0.75 34.4374 0.166875 32.5955C0.0984375 32.3748 0.0553125 32.1466 0 31.9221ZM2.25 12.3831C2.25 12.5287 2.25 12.6433 2.25 12.7579C2.25 18.8977 2.24906 25.0384 2.25 31.1782C2.25 32.7477 3.25031 33.7508 4.81687 33.7508C13.605 33.7517 22.3941 33.7517 31.1822 33.7508C32.7487 33.7508 33.7481 32.7486 33.7491 31.1782C33.75 25.0384 33.7491 18.8977 33.7491 12.7579C33.7491 12.6349 33.7491 12.5128 33.7491 12.3841C23.2312 12.3831 12.7678 12.3831 2.25 12.3831ZM7.875 5.0646C6.76781 5.0646 5.70375 5.05614 4.63969 5.06648C3.29906 5.07963 2.26688 6.11842 2.25187 7.46059C2.2425 8.25707 2.24906 9.05354 2.25094 9.85001C2.25094 9.9383 2.26781 10.0266 2.27437 10.098C12.7819 10.098 23.2594 10.098 33.7481 10.098C33.7481 9.19161 33.7584 8.31342 33.7463 7.43617C33.7275 6.11467 32.6925 5.08338 31.3697 5.06648C30.4912 5.05521 29.6128 5.06366 28.7344 5.06366C28.5394 5.06366 28.3444 5.06366 28.125 5.06366C28.125 5.43184 28.1269 5.75776 28.125 6.08367C28.1194 6.80125 27.6581 7.30844 27.0075 7.31219C26.3559 7.31689 25.8816 6.80782 25.8759 6.09776C25.8731 5.76151 25.875 5.4262 25.875 5.0862C20.6053 5.0862 15.3769 5.0862 10.125 5.0862C10.125 5.45814 10.1306 5.80847 10.1241 6.15787C10.1119 6.81721 9.62906 7.31031 9.00375 7.31219C8.37844 7.31407 7.89 6.81909 7.87687 6.16444C7.86937 5.81411 7.875 5.46377 7.875 5.0646Z" fill="#F36F20"/>
<rect x="8" y="16" width="2.5" height="2.5" rx="0.5" fill="#F36F20"/>
<rect x="8" y="21" width="2.5" height="2.5" rx="0.5" fill="#F36F20"/>
<rect x="8" y="26" width="2.5" height="2.5" rx="0.5" fill="#F36F20"/>
<rect x="14" y="16" width="2.5" height="2.5" rx="0.5" fill="#F36F20"/>
<rect x="14" y="21" width="2.5" height="2.5" rx="0.5" fill="#F36F20"/>
<rect x="14" y="26" width="2.5" height="2.5" rx="0.5" fill="#F36F20"/>
<rect x="20" y="16" width="2.5" height="2.5" rx="0.5" fill="#F36F20"/>
<rect x="20" y="21" width="2.5" height="2.5" rx="0.5" fill="#F36F20"/>
<rect x="26" y="16" width="2.5" height="2.5" rx="0.5" fill="#F36F20"/>
<rect x="26" y="21" width="2.5" height="2.5" rx="0.5" fill="#F36F20"/>
</g>
<defs>
<clipPath id="clip0_27_20928">
<rect width="36" height="36" fill="white"/>
</clipPath>
</defs>
</svg>
