<svg width="38" height="40" viewBox="0 0 38 40" fill="none" xmlns="http://www.w3.org/2000/svg">
<g clip-path="url(#clip0_27_21016)">
<path d="M37.9784 22.9149C37.9784 22.8932 37.9892 22.8715 37.9892 22.8443C37.9892 22.3009 37.9892 18.4428 37.9892 17.9049C37.9838 16.9214 37.9838 15.9052 38.0001 14.9108C38.0164 14.0088 37.7121 13.2915 37.0384 12.6449C35.2835 10.9712 33.5611 9.28128 31.5074 7.2653C31.4313 7.19466 31.3716 7.04251 31.3716 6.95014C31.3879 6.49912 31.3553 6.04811 31.2792 5.60796C30.8391 3.07576 28.8723 0.918503 26.3839 0.228397C26.0524 0.136021 25.7101 0.0708142 25.3678 0.0382107C22.4393 -0.271522 19.5814 1.48363 18.4024 4.29839C18.2666 4.62443 18.1797 4.96676 18.0927 5.30366C18.071 5.39604 18.0438 5.49385 18.0167 5.58623C16.9952 5.53732 16.2943 6.09701 15.7945 6.60237C12.5237 9.90075 9.23658 13.1937 5.94948 16.4812L2.23315 20.2034C1.84739 20.5838 1.46706 20.9642 1.09761 21.3554C-0.380233 22.9421 -0.363933 25.2298 1.13564 26.8002C1.51596 27.2023 4.15651 29.8377 4.91716 30.5931C4.9226 30.5985 4.92803 30.6094 4.9389 30.6148L6.22657 31.9081C7.51425 33.2013 8.80192 34.4946 10.095 35.7824C11.763 37.4398 14.1048 37.4452 15.7891 35.7879C16.3378 35.2445 16.8866 34.7011 17.419 34.1468C17.419 34.212 17.419 34.2718 17.419 34.3316C17.4136 34.8695 17.4082 35.4021 17.4299 35.94C17.4788 37.3202 18.1199 38.4233 19.2935 39.1297C19.6086 39.3199 19.9618 39.4394 20.2986 39.5536C20.4453 39.6025 20.592 39.6514 20.7387 39.7111L34.5826 39.7274L34.7184 39.6894L34.751 39.6622C36.9297 39.108 37.9947 37.7332 37.9947 35.4673V23.3062V23.2084C37.9947 23.1106 37.9892 23.0128 37.9784 22.9149ZM24.2975 1.71729C26.7261 1.5597 28.8505 3.09206 29.4699 5.31453C29.4265 5.26563 29.383 5.22215 29.3395 5.17868C28.3507 4.25492 26.9652 4.27122 26.047 5.21129C25.683 5.58623 25.3189 5.72207 24.7865 5.70034C23.602 5.65143 22.3959 5.63513 21.2331 5.62426C20.7768 5.61883 20.3204 5.6134 19.8585 5.60796H19.7662C19.9509 3.77674 22.1351 1.85857 24.2975 1.71729ZM17.4082 31.544C17.4082 31.6635 17.3375 31.832 17.256 31.9135C16.5769 32.6145 15.8923 33.3046 15.2023 33.9892L14.6752 34.5109C13.5723 35.614 12.3064 35.6085 11.198 34.5L6.2809 29.5715C6.27547 29.566 6.27004 29.5552 6.25917 29.5497C6.02011 29.3052 3.11333 26.3981 2.86884 26.1536L2.47764 25.7623C1.42903 24.7081 1.4236 23.404 2.46135 22.3607L8.18253 16.6279C11.1762 13.623 14.1754 10.6235 17.1691 7.61851C17.4136 7.36855 17.6472 7.2653 17.9841 7.27617C19.4728 7.30334 20.9561 7.32508 22.4448 7.34681L23.8085 7.36311C23.037 8.11299 22.26 8.86287 21.4885 9.61275C20.4127 10.6561 19.3424 11.6994 18.2612 12.7372C17.6744 13.3024 17.3919 13.9707 17.4027 14.7695C17.4136 15.8128 17.4136 22.0292 17.4082 23.0725V23.279C17.4082 23.3008 17.4082 23.3225 17.4082 23.3442V24.1919V24.556C17.4082 24.5723 17.4082 24.5832 17.4082 24.594V25.1428C17.419 27.2892 17.419 29.4139 17.4082 31.544ZM36.2995 35.6031C36.2995 37.13 35.3867 38.0375 33.8545 38.0375C32.6484 38.0429 31.4531 38.0375 30.2523 38.0321C27.4162 38.0266 24.4822 38.0158 21.6026 38.0538C20.8854 38.0592 20.2443 37.8147 19.7825 37.3528C19.3207 36.8909 19.0816 36.266 19.0925 35.5488C19.1305 32.6145 19.1196 29.6367 19.1142 26.7513C19.1142 25.8819 19.1088 25.007 19.1088 24.1267V23.9257C19.1088 22.5998 19.1142 16.09 19.1033 14.7587C19.1033 14.4381 19.1848 14.2153 19.3804 14.0251C20.6355 12.8079 21.896 11.5853 23.1511 10.3626C24.4877 9.06393 25.8242 7.75979 27.1662 6.46652C27.5303 6.11332 27.8726 6.11332 28.2474 6.46109C28.6821 6.86863 29.1059 7.28704 29.5243 7.71088C29.546 7.73262 29.5732 7.78152 29.5786 7.75435C29.4156 8.58574 29.0624 9.33019 28.53 9.96052C28.4756 9.93878 28.4322 9.91705 28.3833 9.90075C27.5466 9.61275 26.6283 9.88988 26.0959 10.5963C25.5852 11.2755 25.558 12.2047 26.0253 12.9166C26.5142 13.661 27.4162 13.9925 28.2637 13.7534C29.0624 13.5252 29.8176 12.7535 29.6927 11.857C29.6275 11.3679 29.8176 11.0853 30.0839 10.6941L30.1762 10.5582C30.3936 10.2268 30.5729 9.87358 30.7413 9.53124C30.7956 9.41713 30.8554 9.30302 30.9097 9.19434C30.926 9.16174 30.9423 9.12913 30.9532 9.09653C30.9532 9.09653 30.9532 9.09653 30.9586 9.10196L32.3115 10.417C33.4959 11.569 34.6749 12.7209 35.8703 13.8621C36.1854 14.1664 36.3158 14.4761 36.3104 14.9054C36.2886 16.3671 36.2886 21.2141 36.3158 22.7791C36.3158 22.8117 36.3267 22.8552 36.3321 22.8878C36.3158 23.0182 36.3049 23.1486 36.3049 23.2845L36.2995 35.6031ZM28.0355 11.8135C28.0355 11.895 27.9975 11.9765 27.9323 12.0363C27.8671 12.1015 27.7802 12.1286 27.6878 12.1286C27.6009 12.1232 27.5194 12.0852 27.4542 12.02C27.3944 11.9548 27.3673 11.8733 27.3673 11.7917C27.3781 11.6179 27.5194 11.4874 27.6987 11.4874C27.7856 11.4657 27.878 11.5255 27.9432 11.5907C28.003 11.6505 28.0355 11.7265 28.0355 11.8135Z" fill="#F36F20"/>
<path d="M24.8571 27.898L24.906 27.9306C25.0038 27.9959 25.1125 28.0774 25.2483 28.1208C25.6558 28.2675 26.0687 28.4143 26.4925 28.561L26.8131 28.6751V28.8598C26.8131 29.1804 26.8077 29.5282 26.8185 29.8705C26.8294 30.3759 27.1662 30.7128 27.6498 30.7128C27.6552 30.7128 27.6607 30.7128 27.6607 30.7128C28.1551 30.7074 28.4811 30.3542 28.4974 29.8108C28.5083 29.463 28.5028 29.1098 28.5028 28.762V28.5284C28.5952 28.5012 28.6767 28.4795 28.7528 28.4523C30.0513 28.0122 30.9749 26.7189 30.9912 25.3061C31.0075 23.9748 30.2686 22.9586 28.9049 22.437C28.8451 22.4152 28.7854 22.3935 28.7256 22.3718C28.6387 22.3392 28.5463 22.312 28.4648 22.2739L28.0301 22.0729C27.59 21.8718 27.1336 21.6599 26.7153 21.4154C26.5849 21.3393 26.4382 21.1165 26.4002 20.9263C26.3404 20.6383 26.4002 20.3449 26.5632 20.1004C26.7425 19.8396 27.025 19.6548 27.3401 19.595C27.9867 19.4755 28.6332 19.6222 29.3776 20.046C29.8937 20.3449 30.3936 20.258 30.6435 19.8233C30.7685 19.6113 30.8011 19.3777 30.7359 19.1549C30.6652 18.9158 30.4805 18.7147 30.2197 18.5843C29.8122 18.3833 29.3884 18.2148 28.9429 18.0301C28.8017 17.9703 28.6495 17.9105 28.5028 17.8507V17.6877C28.5083 17.3834 28.5083 17.0465 28.4974 16.7042C28.4757 16.2151 28.1171 15.8511 27.6552 15.8511H27.6498C27.188 15.8565 26.8403 16.2206 26.824 16.7151C26.8131 17.0791 26.8022 17.4649 26.824 17.8453C26.8294 17.9268 26.8185 17.954 26.8185 17.954C26.8185 17.954 26.7968 17.9757 26.6881 18.0083C25.2864 18.4159 24.4225 19.9211 24.7648 21.3719C24.9278 22.0729 25.319 22.6 25.8949 22.8934C26.6936 23.301 27.5031 23.6487 28.3344 24.0019C28.9103 24.2465 29.1928 24.5345 29.2798 24.9692C29.3721 25.431 29.258 25.9092 28.9646 26.2842C28.6604 26.67 28.204 26.9036 27.7096 26.9254C26.9055 26.9634 26.2915 26.8113 25.7699 26.4581C25.558 26.3113 25.3135 26.257 25.0799 26.3059C24.8626 26.3548 24.6724 26.4907 24.5474 26.6917C24.2921 27.121 24.417 27.5992 24.8571 27.898Z" fill="#F36F20"/>
<path d="M32.2192 34.0651C32.1432 34.0597 32.0671 34.0597 31.9856 34.0651H23.776H23.6021C23.45 34.0651 23.2979 34.0651 23.1457 34.0705C22.6513 34.1031 22.3036 34.4672 22.3145 34.9345C22.3253 35.3801 22.6622 35.717 23.1349 35.7496C23.2164 35.7551 23.2979 35.7551 23.3794 35.7551H23.4609H30.3774C30.6001 35.7551 30.8175 35.7551 31.0402 35.7551C31.426 35.7551 31.8117 35.7551 32.1975 35.7496C32.4583 35.7496 32.6919 35.6518 32.8549 35.4779C33.0071 35.3203 33.0885 35.1084 33.0777 34.8802C33.0723 34.4292 32.7191 34.0923 32.2192 34.0651Z" fill="#F36F20"/>
<path d="M23.0641 33.1635C23.1836 33.1798 23.3031 33.1798 23.4824 33.1798H29.133H31.9583C32.3875 33.1798 32.6863 33.0874 32.8765 32.8918C33.0177 32.745 33.0884 32.5549 33.0884 32.3266C33.0829 32.0115 32.9308 31.4898 31.9474 31.4844H23.4335C23.3031 31.4844 23.1727 31.4844 23.0423 31.5061C22.5859 31.5822 22.3088 31.9137 22.3251 32.3647C22.3469 32.8048 22.6294 33.1091 23.0641 33.1635Z" fill="#F36F20"/>
<path d="M9.72554 21.9044C9.57885 21.7577 9.43215 21.611 9.28002 21.4697L9.23655 21.4262C9.06812 21.2632 8.8182 21.0241 8.51393 21.0567C8.18794 21.1002 7.84021 21.6164 7.83478 21.6219C7.64462 21.9425 7.72068 22.2848 8.06841 22.6271L9.73641 24.2953C11.2631 25.8277 12.7953 27.3601 14.3221 28.8924C14.5991 29.1695 14.8599 29.2348 15.0284 29.2348H15.0338C15.2457 29.2348 15.4413 29.1424 15.6097 28.9739C15.9575 28.6153 15.9249 28.1154 15.5282 27.7187L9.72554 21.9044Z" fill="#F36F20"/>
<path d="M10.8666 26.6698C9.72562 25.5233 8.57921 24.3767 7.4328 23.2356C7.23177 23.0345 6.98728 22.9041 6.74821 22.9313C6.53088 22.9367 6.32442 23.0291 6.16686 23.1976C5.83543 23.5508 5.8626 24.0453 6.23749 24.4202L12.051 30.2453C12.2032 30.3975 12.3553 30.5496 12.5129 30.6964L12.5618 30.7398C12.7085 30.8757 12.9095 31.0659 13.2083 31.0659L13.279 31.0604C13.6375 31.0278 13.9038 30.7127 13.9961 30.4355C14.0994 30.1367 13.9961 29.8106 13.7245 29.5335L10.8666 26.6698Z" fill="#F36F20"/>
</g>
<defs>
<clipPath id="clip0_27_21016">
<rect width="38" height="39.7273" fill="white"/>
</clipPath>
</defs>
</svg>
