<svg width="16" height="16" viewBox="0 0 16 16" fill="none" xmlns="http://www.w3.org/2000/svg">
<path d="M6.95186 9.17334C7.87963 10.1145 9.00221 10.8412 10.2408 11.3022L11.9163 9.96889C11.966 9.93468 12.0249 9.91637 12.0852 9.91637C12.1455 9.91637 12.2044 9.93468 12.2541 9.96889L15.3652 11.9733C15.4833 12.0443 15.5833 12.1418 15.6572 12.2581C15.7312 12.3744 15.7771 12.5063 15.7913 12.6434C15.8056 12.7805 15.7877 12.919 15.7392 13.048C15.6907 13.177 15.6129 13.2929 15.5119 13.3867L14.0541 14.8267C13.8453 15.033 13.5887 15.1843 13.3072 15.2673C13.0257 15.3503 12.728 15.3623 12.4408 15.3022C9.57507 14.7104 6.9337 13.3242 4.81853 11.3022C2.7503 9.26012 1.31909 6.66172 0.698527 3.82223C0.637223 3.5394 0.650018 3.24553 0.735672 2.96911C0.821326 2.69268 0.976934 2.44306 1.18742 2.24445L2.69853 0.786673C2.79204 0.690578 2.90608 0.616884 3.0321 0.571107C3.15813 0.525331 3.29288 0.508659 3.42627 0.522339C3.55965 0.536019 3.68821 0.579698 3.80232 0.650104C3.91643 0.72051 4.01314 0.815819 4.08519 0.928895L6.15631 4.00001C6.19203 4.04823 6.21131 4.10666 6.21131 4.16667C6.21131 4.22669 6.19203 4.28511 6.15631 4.33334L4.79186 5.97334C5.26545 7.18709 6.0033 8.28019 6.95186 9.17334V9.17334Z" fill="#282828"/>
</svg>
