<svg width="16" height="16" viewBox="0 0 16 16" fill="none" xmlns="http://www.w3.org/2000/svg">
<path d="M6.76448 9.17334C7.69225 10.1145 8.81483 10.8412 10.0534 11.3022L11.7289 9.96889C11.7786 9.93468 11.8375 9.91637 11.8978 9.91637C11.9581 9.91637 12.017 9.93468 12.0667 9.96889L15.1778 11.9733C15.2959 12.0443 15.3959 12.1418 15.4699 12.2581C15.5438 12.3744 15.5897 12.5063 15.6039 12.6434C15.6182 12.7805 15.6003 12.919 15.5518 13.048C15.5033 13.177 15.4255 13.2929 15.3245 13.3867L13.8667 14.8267C13.6579 15.033 13.4013 15.1843 13.1198 15.2673C12.8383 15.3503 12.5406 15.3623 12.2534 15.3022C9.38769 14.7104 6.74632 13.3242 4.63115 11.3022C2.56292 9.26012 1.13172 6.66172 0.511149 3.82223C0.449846 3.5394 0.46264 3.24553 0.548294 2.96911C0.633948 2.69268 0.789556 2.44306 1.00004 2.24445L2.51115 0.786673C2.60466 0.690578 2.7187 0.616884 2.84473 0.571107C2.97075 0.525331 3.1055 0.508659 3.23889 0.522339C3.37227 0.536019 3.50083 0.579698 3.61494 0.650104C3.72905 0.72051 3.82576 0.815819 3.89782 0.928895L5.96893 4.00001C6.00465 4.04823 6.02393 4.10666 6.02393 4.16667C6.02393 4.22669 6.00465 4.28511 5.96893 4.33334L4.60448 5.97334C5.07807 7.18709 5.81592 8.28019 6.76448 9.17334Z" fill="white"/>
</svg>
