<svg width="44" height="30" viewBox="0 0 44 30" fill="none" xmlns="http://www.w3.org/2000/svg">
<g clip-path="url(#clip0_27_20940)">
<path d="M43.5741 15.7215C43.565 15.6956 43.5549 15.6685 43.5458 15.6425C43.5266 15.5917 43.5086 15.5443 43.4995 15.498C43.1225 13.6182 42.2667 12.1821 40.8802 11.1073C40.3846 10.7223 39.8867 10.3215 39.4058 9.9331C39.2477 9.80552 39.0908 9.67907 38.9327 9.55149C38.8898 9.51762 38.8492 9.47924 38.804 9.43634C38.9632 9.40359 39.119 9.37311 39.2737 9.3415C39.7874 9.23763 40.2728 9.13941 40.7606 9.03554C41.3443 8.91022 41.543 8.672 41.5475 8.09056C41.552 7.50122 41.552 6.91752 41.5475 6.35753C41.5419 5.71174 41.254 5.42271 40.6138 5.41933C39.6259 5.41481 38.5861 5.41481 37.5237 5.41933C36.8802 5.42158 36.59 5.70835 36.581 6.3485C36.5787 6.55285 36.5787 6.7572 36.5799 6.96042V6.97961C36.4049 6.80688 36.2829 6.64543 36.196 6.47269C35.7071 5.50061 35.225 4.50483 34.7588 3.54179L34.5838 3.1805C33.5711 1.08958 31.9137 0.024925 29.6579 0.0158929C24.0479 -0.00668725 18.8985 -0.00555824 13.9162 0.0170219C11.648 0.028312 9.99285 1.09522 8.99594 3.18841C8.83675 3.52259 8.6832 3.86581 8.5353 4.19774C8.32305 4.67305 8.10289 5.1653 7.86354 5.63497C7.67387 6.00754 7.44919 6.35979 7.20985 6.73349C7.14323 6.83849 7.07549 6.94349 7.00775 7.05187C7.00662 6.9672 7.00549 6.88252 7.00437 6.79897C7.00324 6.64656 7.00098 6.49527 6.99872 6.34285C6.98856 5.71738 6.70066 5.42384 6.09326 5.42045C4.95635 5.41368 3.91766 5.41368 2.91849 5.42045C2.33818 5.42384 2.04012 5.72754 2.03334 6.32027C2.0277 6.83736 2.0277 7.38493 2.03334 8.0962C2.03786 8.67538 2.23769 8.91135 2.82591 9.03441C3.3159 9.13602 3.80589 9.2365 4.32523 9.34263L4.79264 9.43859C4.59958 9.59327 4.41216 9.74568 4.22701 9.89471C3.69186 10.3271 3.18606 10.7358 2.66785 11.1321C1.69351 11.8784 0.966431 12.8651 0.504667 14.0675C0.361283 14.4401 0.254027 14.8307 0.151287 15.209C0.103869 15.3817 0.0564504 15.5544 0.00564504 15.7249L0 28.2851L0.00677405 28.3043C0.36467 29.2516 0.905464 29.7686 1.70819 29.9312C1.92496 29.9752 2.1485 29.9809 2.31785 29.982C3.9933 29.9854 5.70262 29.9865 7.39726 29.9832C8.81642 29.9809 9.70269 29.1014 9.70834 27.6868C9.70947 27.4293 9.70947 27.1719 9.70834 26.9055V26.6334H33.8691V26.9111C33.868 27.1979 33.868 27.4847 33.8702 27.7726C33.8827 29.0687 34.7983 29.9775 36.0955 29.982C36.6408 29.9843 37.1963 29.9798 37.7326 29.9764C38.7634 29.9685 39.8291 29.9606 40.8746 29.9978C40.9356 30.0001 40.9954 30.0012 41.0552 30.0012C42.3638 30.0012 43.1665 29.4582 43.5729 28.3032L43.5797 28.2851V15.7385L43.5741 15.7215ZM12.803 23.9012C15.4889 23.8967 18.1759 23.8978 20.8618 23.8989H23.8898H25.7515C27.3028 23.8989 28.8552 23.8989 30.4064 23.8989C31.3119 23.8989 32.0514 24.2512 32.7175 25.0008H10.528C11.1693 24.2625 11.9156 23.9023 12.803 23.9012ZM9.08174 6.74704C9.23529 6.41737 9.38431 6.08431 9.52883 5.76141C9.92172 4.88192 10.2932 4.04984 10.7662 3.2584C11.4052 2.18698 12.4789 1.59538 13.7886 1.59312C19.2135 1.58296 24.5175 1.57505 29.7866 1.59763C31.2408 1.60441 32.3675 2.31229 33.0449 3.64452C33.4164 4.37499 33.7461 5.10772 34.0938 5.88335C34.2225 6.17012 34.3523 6.45914 34.4844 6.74817H9.08174V6.74704ZM39.9703 7.22348C39.9917 7.38154 39.9793 7.48428 39.9285 7.54863C39.8788 7.61299 39.7795 7.6525 39.6271 7.66944C39.2658 7.71008 38.9158 7.78573 38.5455 7.86701C38.4303 7.89185 38.3129 7.91782 38.1943 7.94153V7.01687H39.9646C39.9624 7.088 39.9601 7.15574 39.9703 7.22348ZM35.4497 26.9292C35.4509 26.8264 35.4509 26.7226 35.452 26.6176C35.4655 26.6165 35.4791 26.6165 35.4926 26.6153C35.5886 26.6097 35.6789 26.604 35.767 26.604C36.0933 26.604 36.4207 26.6018 36.747 26.6006C37.5756 26.5961 38.4314 26.5927 39.2725 26.6085C40.169 26.6266 41.1151 26.5927 41.998 26.0158C41.998 26.166 41.9991 26.3127 41.9991 26.4561C42.0014 26.9235 42.0025 27.3639 41.9946 27.7997C41.9867 28.1858 41.7722 28.3992 41.3906 28.4014C39.6598 28.4093 37.8681 28.4093 36.065 28.4014C35.6778 28.4003 35.4667 28.1937 35.4542 27.8042C35.4463 27.5174 35.4475 27.2318 35.4497 26.9292ZM1.58174 26.4652C1.58287 26.3173 1.584 26.166 1.58513 26.0113C2.48382 26.6289 3.46493 26.6176 4.41668 26.6074L4.63232 26.6052C5.45198 26.5995 6.25583 26.6006 7.10711 26.6018C7.44016 26.6018 7.77661 26.6029 8.11644 26.6029C8.11757 26.7169 8.11983 26.831 8.12208 26.9439C8.12886 27.2927 8.13676 27.6224 8.10515 27.9521C8.07918 28.2264 7.8737 28.398 7.56774 28.3992C5.64052 28.4071 3.87024 28.4071 2.15641 28.3992C1.81883 28.398 1.60771 28.2072 1.59416 27.8888C1.57271 27.4282 1.57722 26.9597 1.58174 26.4652ZM3.9154 25.0245L3.6275 25.0234C2.39011 25.02 1.58626 24.2252 1.58174 22.998C1.57835 22.2607 1.57948 21.5246 1.58061 20.7716V19.8571H2.03334C2.03334 19.8977 2.03334 19.9372 2.03221 19.9768C2.03109 20.1438 2.02996 20.3008 2.03447 20.4622C2.07286 21.9751 3.28767 23.1854 4.79941 23.2181C5.37295 23.2306 5.95665 23.226 6.52115 23.2227L6.75034 23.2215C7.31258 23.2181 7.66709 22.9201 7.67387 22.4448C7.67725 22.2314 7.60726 22.0462 7.4729 21.9085C7.30581 21.738 7.0484 21.6477 6.72776 21.6454C6.37777 21.6432 6.02777 21.6432 5.67778 21.6443C5.4915 21.6443 5.30521 21.6454 5.11892 21.6443C4.5849 21.6443 4.20894 21.5269 3.96846 21.2853C3.72798 21.0437 3.6117 20.6643 3.61395 20.1269C3.61395 20.0547 3.61395 19.9813 3.61395 19.9V19.8639C4.67748 19.786 5.70036 19.795 6.55841 20.5198C6.98066 20.8766 7.45371 20.8743 7.76306 20.5142C7.90306 20.3516 7.96854 20.1608 7.95273 19.9621C7.93354 19.7295 7.80483 19.5082 7.58129 19.3219C6.75598 18.6344 5.82004 18.2799 4.79941 18.2663C4.04298 18.2561 3.27299 18.2584 2.52785 18.2607C2.23318 18.2618 1.93964 18.2629 1.64384 18.2629V15.8186C2.32011 16.3651 3.05058 16.4746 3.92556 16.4655C5.69133 16.4452 7.15565 16.4463 8.53643 16.4701C9.08964 16.478 9.47576 16.3154 9.77382 15.9383C9.88447 15.7972 9.99962 15.6594 10.1272 15.5059C10.1633 15.4619 10.2006 15.4178 10.239 15.3715C10.3056 15.4404 10.3688 15.5048 10.4286 15.5657C10.6036 15.7441 10.7549 15.8988 10.8949 16.0591C11.1399 16.3402 11.4414 16.4655 11.8693 16.4655C11.8726 16.4655 11.876 16.4655 11.8794 16.4655C13.0468 16.4599 14.2345 16.4599 15.3827 16.4599C16.593 16.4599 17.8451 16.4599 19.0768 16.4531C19.3467 16.4542 19.5149 16.5242 19.6922 16.7117C20.1133 17.1565 20.5581 17.5923 20.9883 18.0145L21.1283 18.1523C21.5923 18.6084 21.9897 18.6095 22.4537 18.1545L22.6332 17.9795C23.0318 17.59 23.4439 17.1881 23.8311 16.7726C24.049 16.5378 24.2635 16.4463 24.5898 16.4509C25.5912 16.4588 26.6096 16.4576 27.5952 16.4576C28.8574 16.4565 30.1637 16.4554 31.4474 16.4734C32.1112 16.4791 32.5572 16.2894 32.9016 15.8468C32.9907 15.7328 33.0935 15.6267 33.2019 15.5138C33.229 15.4856 33.2561 15.4573 33.2843 15.428C33.3057 15.4472 33.3272 15.4652 33.3475 15.4822C33.4277 15.5499 33.4909 15.6041 33.5349 15.6651C34.0848 16.4305 34.8581 16.5005 35.4723 16.4768C36.4534 16.4373 37.4548 16.4463 38.4224 16.4543C38.8345 16.4576 39.2454 16.461 39.6575 16.461C40.7978 16.461 41.0699 16.4001 41.9393 15.8401V18.2629C41.657 18.2629 41.3714 18.2618 41.0857 18.2618C40.3474 18.2607 39.583 18.2595 38.8277 18.264C37.8105 18.2708 36.8711 18.6174 36.0368 19.2948C35.7918 19.4935 35.6507 19.7239 35.6304 19.9621C35.6134 20.1585 35.6789 20.3493 35.8223 20.5153C36.1328 20.8743 36.5821 20.8777 37.0258 20.5243C37.6231 20.0468 38.2587 19.8243 38.9835 19.8401C39.2263 19.8458 39.4712 19.8447 39.7083 19.8424C39.784 19.8424 39.8596 19.8413 39.9353 19.8413C40.038 20.4114 39.9364 20.9014 39.6462 21.2288C39.3629 21.5483 38.9192 21.6985 38.3908 21.6511C38.0555 21.6206 37.7145 21.6285 37.3848 21.6364C37.2369 21.6398 37.089 21.6432 36.9411 21.6432L36.8678 21.642C36.791 21.6409 36.712 21.6398 36.6318 21.6499C36.2016 21.7008 35.8923 22.044 35.9126 22.447C35.9352 22.8941 36.2129 23.1922 36.6194 23.2046L36.9197 23.2147C37.6468 23.2396 38.3998 23.2644 39.1303 23.1764C40.5348 23.007 41.5306 21.8554 41.5509 20.3753C41.5531 20.2432 41.552 20.1111 41.552 19.97V19.8706H41.9822C41.9833 20.2026 41.9878 20.539 41.9935 20.8642C42.0059 21.7008 42.0194 22.5667 41.963 23.4101C41.9043 24.2828 41.0981 25.0031 40.1678 25.0155C38.4755 25.0381 36.7729 25.0279 35.1754 25.0144C35.076 25.0133 34.9326 24.9421 34.8243 24.8417C34.5476 24.5831 34.2744 24.3088 34.0114 24.0423C33.8827 23.9125 33.754 23.7826 33.6241 23.6539C32.7299 22.7677 31.6416 22.3183 30.3895 22.3183H12.8639C11.613 22.3183 10.5246 22.7677 9.63044 23.6539C9.51189 23.7725 9.39335 23.8922 9.27593 24.0118C9.014 24.2794 8.74191 24.5549 8.45853 24.8055C8.32305 24.9252 8.11418 25.0099 7.95047 25.0121C6.60131 25.0325 5.23634 25.0291 3.9154 25.0245ZM35.1652 8.34007C35.1652 8.34007 35.1663 8.34007 35.1675 8.34007C35.4881 8.34007 35.6575 8.45636 35.8584 8.672C36.3924 9.24328 36.9615 9.79762 37.5113 10.335C37.6976 10.5168 37.8827 10.6974 38.0679 10.8803C38.1345 10.9458 38.2045 11.0034 38.2858 11.0689C38.2734 11.0745 38.261 11.0802 38.2485 11.0858C38.1187 11.1423 38.0013 11.1942 37.8827 11.2416C37.5169 11.3873 37.15 11.5318 36.7831 11.6763C35.9194 12.0161 35.0263 12.3672 34.1581 12.7387C33.8104 12.8877 33.4502 13.1259 33.0574 13.468C32.8654 13.6351 32.6893 13.8327 32.5199 14.0235C32.2185 14.3622 31.934 14.6828 31.5784 14.8307C31.199 14.9888 30.7135 14.9515 30.245 14.9165C30.0361 14.9007 29.8205 14.8849 29.6139 14.8838C29.1092 14.8838 28.6057 14.8838 28.101 14.8827C26.7654 14.8804 25.3846 14.8782 24.0264 14.8996C23.7408 14.9041 23.3851 15.0498 23.1413 15.2609C22.7935 15.5623 22.4774 15.8931 22.1421 16.2431C22.0292 16.3617 21.9129 16.4825 21.7944 16.6033C21.6792 16.487 21.5641 16.3718 21.4512 16.2589C21.1192 15.9259 20.8054 15.612 20.4971 15.2846C20.2341 15.0035 19.9338 14.8782 19.5251 14.8782C19.5217 14.8782 19.5183 14.8782 19.516 14.8782C16.8471 14.8906 14.4807 14.8883 12.2813 14.8725C12.0872 14.8714 11.8523 14.7754 11.7564 14.6591C10.7527 13.4387 9.43851 12.5818 7.73935 12.0387C7.13646 11.8468 6.5426 11.595 5.96794 11.3511C5.76472 11.2653 5.55472 11.1761 5.34698 11.0915L5.67101 10.7799C6.20277 10.2684 6.72324 9.76713 7.24372 9.26473L7.26517 9.2444C7.32275 9.18908 7.38823 9.12586 7.43226 9.04683C7.75741 8.4462 8.24515 8.32878 8.97336 8.33104C17.6916 8.35813 26.3375 8.35136 35.1652 8.34007ZM39.9172 12.3785C40.379 12.8076 40.7493 13.205 41.0507 13.5933C41.1941 13.7785 41.2472 13.9919 41.2009 14.1951C41.1512 14.413 40.9943 14.5959 40.7617 14.7111C40.5551 14.8127 40.292 14.8725 40.0403 14.8759L39.6079 14.8804C38.1695 14.8951 36.6815 14.9098 35.2228 14.859C35.0365 14.8522 34.8299 14.6964 34.6312 14.5462C34.5544 14.4875 34.4754 14.4277 34.3952 14.3746L34.4065 14.3351L35.2081 14.0122C35.9002 13.7333 36.5934 13.4533 37.2866 13.1756C37.4368 13.1158 37.5869 13.0548 37.7371 12.9938C38.3072 12.7635 38.8966 12.5253 39.4848 12.3176C39.6067 12.2724 39.8382 12.3051 39.9172 12.3785ZM3.97637 12.2566C5.48585 12.8572 7.01791 13.4771 8.49917 14.0777L9.12464 14.3317C8.83675 14.7009 8.53191 14.9222 7.99112 14.9019C7.37016 14.8793 6.74244 14.8736 6.11922 14.8736C5.74891 14.8736 5.37972 14.8759 5.01618 14.8782C4.51942 14.8815 4.00685 14.8838 3.50105 14.8815C2.90494 14.8782 2.52898 14.6433 2.38334 14.1816C2.34382 14.0551 2.35059 13.8756 2.39688 13.8191C2.8722 13.2434 3.37573 12.7026 3.76185 12.295C3.79347 12.2622 3.92105 12.2351 3.97637 12.2566ZM3.63541 7.59041V7.01574H5.38988V7.93476L3.63541 7.59041Z" fill="#F36F20"/>
</g>
<defs>
<clipPath id="clip0_27_20940">
<rect width="43.5797" height="30" fill="white"/>
</clipPath>
</defs>
</svg>
