<svg width="16" height="16" viewBox="0 0 16 16" fill="none" xmlns="http://www.w3.org/2000/svg">
<g clip-path="url(#clip0_3_122)">
<path d="M15.0425 1.83159C14.7281 0.983589 13.9029 0.461312 13.0047 0.506239C12.1851 0.556782 11.4385 1.14083 11.1971 1.93829C10.9501 2.74697 11.2308 3.62867 11.8932 4.13409C12.0167 4.22395 12.0672 4.33065 12.0672 4.48228C12.0616 4.89785 12.0616 5.31343 12.0616 5.73462V6.27936C12.0616 6.69493 11.8202 6.9308 11.4048 6.9308H10.8546C10.428 6.9308 10.0013 6.9308 9.5747 6.9308C9.42874 6.9308 9.34453 6.86341 9.28278 6.7904C9.15928 6.65001 9.01893 6.50961 8.87298 6.38044C8.77754 6.30182 8.73825 6.21197 8.73825 6.09965C8.74386 5.54929 8.74386 4.99894 8.73825 4.44858C8.73825 4.31942 8.78316 4.23518 8.8842 4.15094C9.55786 3.61182 9.81609 2.9323 9.64768 2.12923C9.47365 1.28685 8.95157 0.758954 8.09828 0.556782C7.19446 0.343379 6.24573 0.803881 5.83593 1.65188C5.43173 2.49426 5.6619 3.52758 6.39169 4.10601C6.53765 4.21833 6.59378 4.34188 6.58817 4.52721C6.57694 5.04387 6.58256 5.57176 6.58817 6.0828C6.58817 6.20635 6.54887 6.29621 6.45344 6.38044C6.36362 6.45907 6.27941 6.54892 6.19521 6.63316C6.13907 6.69493 6.07732 6.75671 6.01557 6.81287C5.98188 6.84656 5.89206 6.91957 5.79102 6.91957C5.11736 6.92518 4.44932 6.92518 3.77567 6.91957H3.43884C3.422 6.91957 3.40516 6.91957 3.38832 6.91395L3.30411 6.90272L3.27605 6.76232C3.27605 6.72863 3.27043 6.69493 3.27043 6.66124V5.98172C3.27043 5.47067 3.27043 4.95963 3.27043 4.44858C3.27043 4.31942 3.31534 4.22956 3.41639 4.15094C4.14057 3.60059 4.41564 2.66835 4.09004 1.82035C3.77567 0.983589 2.92799 0.444465 2.04663 0.506239C1.12036 0.57363 0.340043 1.28123 0.194084 2.19662C0.188471 2.2247 0.182857 2.25839 0.171629 2.28647L0.166016 2.30894V2.76944L0.188471 2.84806C0.205312 2.91545 0.21654 2.97722 0.233381 3.04461C0.356884 3.4995 0.60389 3.86453 0.957557 4.13971C1.06983 4.21833 1.12036 4.3138 1.12036 4.4542C1.11474 6.81848 1.12036 9.18838 1.12036 11.5527C1.12036 11.6931 1.07545 11.7829 0.968785 11.8615C0.547752 12.176 0.289519 12.6084 0.194084 13.142C0.188471 13.17 0.182857 13.2037 0.171629 13.2318L0.166016 13.2487L0.177243 13.7429C0.188471 13.7878 0.199698 13.8271 0.205312 13.8664C0.390567 14.7256 1.02492 15.3265 1.90628 15.4725C1.93435 15.4782 1.95681 15.4894 1.97926 15.495H2.42275L2.51257 15.4782C2.57994 15.4669 2.64169 15.4501 2.70344 15.4332C3.52867 15.1861 4.02829 14.6526 4.17986 13.8552C4.33143 13.0577 4.07881 12.3894 3.422 11.8559C3.31534 11.7717 3.27043 11.6762 3.27043 11.547C3.27605 10.9911 3.27043 10.4407 3.27043 9.88475V9.0873L3.422 9.07606C3.4613 9.07606 3.48937 9.07045 3.52305 9.07045H4.17986C4.70194 9.07045 5.22964 9.07045 5.75172 9.07045C5.90329 9.07045 5.98188 9.13784 6.04364 9.21084C6.16714 9.35124 6.30748 9.49164 6.45344 9.61519C6.54887 9.69943 6.58817 9.78366 6.58817 9.89598C6.58256 10.4463 6.58256 10.9967 6.58817 11.547C6.58817 11.6818 6.54326 11.7717 6.44221 11.8447C5.77417 12.3501 5.48226 13.1757 5.70119 13.9563C5.93697 14.793 6.48712 15.2985 7.35164 15.4669C7.37971 15.4725 7.40217 15.4838 7.41901 15.4894H7.88495C7.93548 15.4725 7.986 15.4613 8.04214 15.4501C8.16003 15.422 8.27792 15.3939 8.38458 15.349C9.10876 15.057 9.54102 14.5403 9.6589 13.8102C9.78802 13.0296 9.52979 12.367 8.88982 11.8503C8.78316 11.7605 8.73825 11.6706 8.73825 11.5414C8.74386 10.9967 8.74386 10.452 8.73825 9.90721C8.73825 9.74997 8.81122 9.67135 8.8842 9.59834C9.02455 9.47479 9.15928 9.34001 9.28278 9.19961C9.36699 9.10414 9.45681 9.05922 9.5747 9.05922C9.5747 9.05922 9.5747 9.05922 9.58031 9.05922C10.1922 9.06483 10.8097 9.05922 11.4216 9.05922C12.8082 9.05922 13.9141 8.14383 14.1668 6.78479C14.2004 6.60508 14.2061 6.41414 14.2061 6.27374C14.2117 5.66161 14.2117 5.04387 14.2061 4.43174C14.2061 4.33627 14.2229 4.22956 14.3464 4.12848C15.0762 3.60059 15.3513 2.66835 15.0425 1.83159ZM13.8075 3.63428C13.5605 3.76906 13.4763 3.93192 13.4819 4.22956C13.4931 4.73499 13.4931 5.25165 13.4875 5.75147V6.28497C13.4875 7.46431 12.6005 8.35162 11.4216 8.35162H11.1297C10.501 8.35162 9.86661 8.35162 9.23787 8.35162H9.23226C9.03578 8.35162 8.91227 8.42462 8.82245 8.59871C8.69895 8.85143 8.50808 9.04237 8.25546 9.16592C8.08705 9.25016 8.01407 9.37371 8.01407 9.58149C8.01968 10.3509 8.01968 11.1034 8.01407 11.8559C8.01407 12.0918 8.09266 12.2322 8.29476 12.3389C8.86736 12.6478 9.11437 13.316 8.8842 13.9338C8.65965 14.5347 8.03652 14.8773 7.40778 14.7481C6.78465 14.6245 6.33555 14.0517 6.36923 13.4171C6.39169 12.9398 6.62185 12.5691 7.03166 12.3445C7.23937 12.2322 7.32358 12.0862 7.31796 11.8503C7.30673 11.1202 7.31235 10.4183 7.31796 9.57588C7.31796 9.37371 7.24498 9.25016 7.07096 9.1603C6.82395 9.03675 6.63308 8.84581 6.50396 8.5931C6.41976 8.42462 6.29626 8.35162 6.09416 8.35162H6.08855C5.71804 8.35723 5.35314 8.35723 4.98263 8.35162H2.99536C2.66976 8.35162 2.54064 8.47517 2.54064 8.80089V9.74997C2.54064 10.4632 2.54064 11.1708 2.54064 11.8784C2.54064 12.0974 2.61362 12.2266 2.80449 12.3277C3.3378 12.6141 3.60164 13.2206 3.45007 13.8046C3.2985 14.3774 2.78203 14.7762 2.18697 14.7762C2.18136 14.7762 2.18136 14.7762 2.17575 14.7762C1.59753 14.7706 1.08667 14.3718 0.929489 13.8102C0.772303 13.2374 1.03054 12.6253 1.53578 12.3557C1.76594 12.2378 1.85015 12.0862 1.85015 11.8222C1.84453 9.42425 1.83892 6.91957 1.85015 4.15094C1.85015 3.90946 1.77155 3.77468 1.56946 3.66798C1.04738 3.38718 0.783531 2.78628 0.935102 2.20785C1.08106 1.63503 1.59191 1.23069 2.18697 1.23069H2.19259C2.77642 1.23069 3.29289 1.6238 3.45007 2.191C3.61287 2.76382 3.35464 3.38157 2.84378 3.65674C2.62485 3.77468 2.54064 3.92069 2.54064 4.17341C2.54626 4.88101 2.54625 5.58299 2.54625 6.29059V7.20598C2.54625 7.51485 2.68099 7.64963 2.98974 7.64963H3.93286C4.65142 7.64963 5.36998 7.64963 6.08293 7.64963C6.08293 7.64963 6.08293 7.64963 6.08855 7.64963C6.30187 7.64963 6.43099 7.57101 6.52081 7.3913C6.63869 7.14982 6.82395 6.97011 7.06534 6.84656C7.23937 6.75671 7.31796 6.62754 7.31796 6.41976C7.31235 5.56614 7.31235 4.81362 7.31796 4.11163C7.31796 3.89823 7.24498 3.76906 7.0485 3.66236C6.4759 3.35349 6.21766 2.6852 6.44221 2.07307C6.66115 1.46655 7.27867 1.11837 7.91302 1.24192C8.54738 1.36547 8.99648 1.93829 8.96841 2.5785C8.94596 3.06146 8.71018 3.43211 8.29476 3.65674C8.09828 3.76345 8.01407 3.89823 8.01968 4.12848C8.0253 4.83046 8.0253 5.56614 8.01968 6.39168C8.01968 6.61631 8.09266 6.75109 8.27792 6.84095C8.51931 6.95888 8.69895 7.1442 8.82245 7.3913C8.91227 7.57101 9.04139 7.64963 9.24349 7.64402C9.67013 7.64402 10.1024 7.64402 10.529 7.64402C10.8266 7.64402 11.1297 7.64402 11.4272 7.64402C12.2132 7.64402 12.7858 7.0712 12.7858 6.27936C12.7858 6.02103 12.7858 5.75708 12.7858 5.49875C12.7858 5.04387 12.7858 4.58898 12.7914 4.13971C12.7914 3.90384 12.7128 3.76345 12.5051 3.65674C11.9886 3.38718 11.7304 2.78628 11.8707 2.20223C12.0055 1.64626 12.5275 1.2363 13.1058 1.22507C13.6952 1.22507 14.2173 1.60133 14.3801 2.16854C14.5485 2.74697 14.3071 3.36472 13.8075 3.63428Z" fill="#979797"/>
</g>
<defs>
<clipPath id="clip0_3_122">
<rect width="15" height="15" fill="white" transform="translate(0.166016 0.5)"/>
</clipPath>
</defs>
</svg>
