<svg width="24" height="15" viewBox="0 0 24 15" fill="none" xmlns="http://www.w3.org/2000/svg">
<g clip-path="url(#clip0_3_124)">
<path d="M22.436 6.11784C22.3588 6.04628 22.219 6.01285 22.1053 6.00757C21.78 5.99291 21.4529 6.00112 21.127 6.00288C20.7446 6.00464 20.6133 6.13251 20.6115 6.50966C20.6091 6.91204 20.6109 7.315 20.6109 7.71738C20.6109 7.88983 20.6109 8.06169 20.6109 8.2359H19.8339C19.8339 8.14674 19.8339 8.06814 19.8339 7.98954C19.8339 7.23582 19.8351 6.48151 19.8333 5.72778C19.8327 5.37937 19.702 5.2556 19.3372 5.25443C18.6088 5.25267 17.8805 5.24974 17.1527 5.25736C17.0184 5.25854 16.8937 5.19402 16.8202 5.0855C16.4116 4.47959 15.9885 3.88248 15.5805 3.27598C15.4516 3.08476 15.296 2.99502 15.0558 3.0003C14.5555 3.01144 14.0545 3.00382 13.5542 3.00382C13.3286 3.00382 13.1024 3.00382 12.8678 3.00382V2.25302C12.976 2.25302 13.066 2.25302 13.1559 2.25302C13.922 2.25302 14.688 2.25537 15.4547 2.25185C15.814 2.25009 15.9538 2.11401 15.9562 1.77381C15.9593 1.3421 15.9599 0.90981 15.9562 0.478105C15.9538 0.141422 15.8085 0.00123492 15.4522 0.000648364C12.9413 -0.0011113 10.4304 -0.0011113 7.91947 0.000648364C7.55044 0.000648364 7.40939 0.140249 7.40696 0.492182C7.40452 0.902185 7.40574 1.31219 7.40635 1.72219C7.40696 2.12515 7.53341 2.25126 7.94623 2.25244C8.71227 2.25478 9.47831 2.25302 10.245 2.25361C10.3258 2.25361 10.4073 2.26006 10.4936 2.26358V3.00382C9.75433 3.00382 9.03449 3.00909 8.31526 3.00088C8.07816 2.99795 7.91765 3.07714 7.78815 3.27129C7.38872 3.86664 6.96982 4.45085 6.5716 5.04679C6.47007 5.19871 6.3655 5.26323 6.17277 5.25912C5.58122 5.24563 4.98966 5.25267 4.39811 5.25502C4.05521 5.25619 3.91842 5.38817 3.91173 5.72192C3.90686 5.97824 3.91051 6.23457 3.91051 6.49031C3.91051 6.94313 3.91051 7.39536 3.91051 7.85757H3.13231C3.13231 7.76137 3.13231 7.6816 3.13231 7.60242C3.13231 6.98008 3.13352 6.35833 3.1317 5.73599C3.13049 5.38171 3.00281 5.25619 2.6435 5.25443C2.18813 5.25209 1.73337 5.25912 1.278 5.2515C1.07493 5.24798 0.932061 5.31954 0.822626 5.48319C0.600109 5.81459 0.362392 6.1372 0.147778 6.47271C0.0802932 6.57829 0.0492867 6.71378 0.0310475 6.83989C-0.0832511 7.61767 0.107652 8.30804 0.654218 8.9075C0.750886 9.01367 0.795267 9.19726 0.797091 9.34625C0.809251 10.3053 0.803171 11.2637 0.803779 12.2227C0.804387 12.6169 0.927805 12.7412 1.32663 12.7442C1.7589 12.7471 2.19117 12.7471 2.62404 12.7442C3.00463 12.7412 3.13049 12.6198 3.1317 12.2567C3.13352 11.6274 3.1317 10.998 3.13292 10.368C3.13292 10.2912 3.1396 10.2149 3.14325 10.1404H3.9093C3.9093 10.2343 3.9093 10.3129 3.9093 10.3921C3.9093 10.9997 3.90808 11.6074 3.9099 12.2145C3.91112 12.6186 4.03575 12.7424 4.44918 12.7442C5.04012 12.7465 5.63046 12.7494 6.2208 12.7412C6.34848 12.7395 6.46764 12.8005 6.53695 12.9037C6.95098 13.5161 7.37838 14.1208 7.79241 14.7332C7.91704 14.9179 8.07329 14.9995 8.30067 14.9995C11.9722 14.9965 15.6437 14.9977 19.3153 14.9965C19.601 14.9965 19.8327 14.7731 19.8333 14.4974C19.8345 13.5002 19.8339 12.5037 19.8339 11.5065C19.8339 11.4279 19.8339 11.3493 19.8339 11.2584H20.6109C20.6109 11.3534 20.6109 11.4326 20.6109 11.5124C20.6109 12.2591 20.6091 13.0058 20.6121 13.7525C20.6133 14.1067 20.755 14.2416 21.1222 14.2463C21.4329 14.2504 21.7447 14.2545 22.0548 14.2434C22.1709 14.2393 22.3205 14.2246 22.3947 14.1554C22.7193 13.8516 23.0221 13.526 23.3328 13.2081V7.01586C23.0355 6.71437 22.7455 6.40643 22.436 6.11784ZM2.34377 11.9793H1.57894C1.57894 11.9025 1.57894 11.8262 1.57894 11.7494C1.57894 10.8719 1.58502 9.99439 1.57286 9.11749C1.57104 8.96264 1.49808 8.79782 1.42391 8.65939C1.34183 8.50513 1.23605 8.36494 1.12175 8.2312C0.911998 7.9872 0.801347 7.68923 0.790404 7.37366C0.77946 7.04167 0.864576 6.78886 1.04697 6.50966C1.15397 6.3466 1.2403 6.12605 1.42756 6.03162C1.63062 5.92897 1.93035 6.00405 2.18813 6.00288C2.23251 6.00229 2.2775 6.00698 2.34438 6.00992V11.9793H2.34377ZM3.88863 9.3615H3.14568V8.64238H3.88863V9.3615ZM8.19367 1.47994V0.766104H15.1628V1.48053H8.19367V1.47994ZM12.0567 2.2542V2.98622H11.2925C11.2925 2.73869 11.2834 2.5029 11.3065 2.26769C11.5515 2.2454 11.7953 2.2542 12.0567 2.2542ZM17.4914 14.2475C17.3923 14.2475 17.3102 14.2475 17.2281 14.2475C14.3688 14.2475 11.5089 14.2458 8.64965 14.2516C8.45996 14.2522 8.35053 14.1977 8.24778 14.0428C7.86354 13.4639 7.45316 12.9014 7.07196 12.3207C6.91632 12.0837 6.72968 11.9793 6.43785 11.9887C5.94539 12.0045 5.45172 11.9934 4.95865 11.9934C4.87719 11.9934 4.79572 11.9934 4.70088 11.9934V6.00229C5.17084 6.00229 5.63107 6.00346 6.09131 6.00229C6.95219 5.99994 6.78014 6.07385 7.25192 5.40166C7.60029 4.90543 7.94501 4.40569 8.28365 3.90301C8.35843 3.79156 8.44051 3.75109 8.57791 3.75109C10.6487 3.75519 12.7194 3.75519 14.7902 3.75109C14.9294 3.7505 15.0078 3.79684 15.082 3.90653C15.4924 4.51244 15.9167 5.11014 16.3235 5.7184C16.4627 5.92663 16.6335 6.02165 16.8889 6.00464C17.084 5.99173 17.281 6.00229 17.4926 6.00229V14.2475H17.4914ZM19.0447 14.2346H18.2988V6.01285H19.0447V14.2346ZM20.5981 10.4818H19.8509V9.01132H20.5981V10.4818ZM22.5527 12.8087C22.5521 12.8978 22.4907 12.9923 22.4403 13.0738C22.4026 13.1348 22.3247 13.1718 22.284 13.2316C22.0651 13.5536 21.7429 13.5149 21.4006 13.4803V6.77479C21.9186 6.69619 22.3053 6.86394 22.5308 7.26515C22.5576 7.31207 22.5564 7.37776 22.5564 7.43466C22.5576 9.226 22.5588 11.0173 22.5527 12.8087Z" fill="#979797"/>
<path d="M5.48022 11.2338C5.73496 11.2338 5.97511 11.2338 6.2256 11.2338C6.2256 9.72165 6.2256 8.22535 6.2256 6.72025C5.97207 6.72025 5.73861 6.72025 5.48022 6.72025C5.48022 8.24001 5.48022 9.72928 5.48022 11.2338Z" fill="#979797"/>
</g>
<defs>
<clipPath id="clip0_3_124">
<rect width="23.3333" height="15" fill="white"/>
</clipPath>
</defs>
</svg>
