<svg width="14" height="17" viewBox="0 0 14 17" fill="none" xmlns="http://www.w3.org/2000/svg">
<g clip-path="url(#clip0_3_114)">
<path d="M11.531 6.18309C11.4179 6.18309 11.3206 6.18358 11.2229 6.18309C10.7723 6.17922 10.4791 5.86095 10.4774 5.36903C10.4756 4.92258 10.4769 4.47613 10.4769 4.02968C10.4769 3.44392 10.6442 3.21078 11.1763 3.07534C11.1763 2.93168 11.1758 2.78222 11.1763 2.63276C11.1776 2.06248 11.3549 1.57201 11.7273 1.17055C11.8175 1.07332 11.9024 0.969812 11.997 0.878393C12.1401 0.740539 12.3447 0.748279 12.475 0.887583C12.6097 1.03172 12.6215 1.24455 12.4961 1.41046C12.4297 1.49849 12.3557 1.58072 12.2787 1.65763C11.9909 1.94398 11.8584 2.29659 11.8831 2.72273C11.8897 2.8364 11.8839 2.95055 11.8839 3.09663C12.008 3.09663 12.1203 3.09711 12.2325 3.09663C12.4143 3.09614 12.5326 3.19143 12.5903 3.38056C12.7707 3.97453 12.9578 4.56658 13.1294 5.16394C13.2808 5.69117 12.9516 6.17294 12.4477 6.18309C12.3887 6.18406 12.3298 6.18309 12.2532 6.18309C12.2532 6.27016 12.2532 6.34078 12.2532 6.4114C12.2532 8.63205 12.2541 10.8527 12.2523 13.0729C12.2519 13.7583 11.8131 14.2763 11.2286 14.2923C10.6275 14.3087 10.1478 13.7994 10.146 13.1256C10.142 11.6353 10.1447 10.1446 10.1442 8.6543C10.1442 8.23638 10.0325 8.11159 9.65705 8.11111C9.54791 8.11111 9.43832 8.11111 9.29969 8.11111C9.29969 8.19817 9.29969 8.27363 9.29969 8.3486C9.29969 10.8164 9.30013 13.2847 9.29925 15.7525C9.29881 16.362 9.01407 16.8075 8.52777 16.9507C8.4129 16.9845 8.28968 16.9976 8.16997 16.9981C5.88059 17.001 3.59122 17.001 1.30184 16.9995C0.60913 16.999 0.166834 16.5129 0.166834 15.7564C0.166394 10.9165 0.166394 6.07716 0.166834 1.23778C0.166834 0.491436 0.61001 0.00193479 1.29128 0.00145109C3.58638 -0.000483697 5.88103 -0.000483697 8.17613 0.00145109C8.86048 0.00193479 9.29837 0.483696 9.29925 1.23584C9.30101 3.19095 9.30013 5.14605 9.30013 7.10115C9.30013 7.17274 9.30013 7.24384 9.30013 7.34155C9.44713 7.34155 9.5818 7.34106 9.7169 7.34155C10.3841 7.34445 10.8277 7.83056 10.8295 8.57255C10.833 10.0328 10.8303 11.4931 10.8308 12.9534C10.8308 13.0197 10.8295 13.0864 10.8339 13.1522C10.8488 13.3636 10.9914 13.5164 11.1745 13.5198C11.3549 13.5237 11.5077 13.3718 11.5288 13.1643C11.5332 13.1227 11.5314 13.0801 11.5314 13.0376C11.5314 10.8111 11.5314 8.58416 11.5314 6.35771C11.531 6.30547 11.531 6.25275 11.531 6.18309ZM8.59994 8.5058C8.59994 6.11005 8.59994 3.71431 8.59994 1.31904C8.59994 0.891453 8.50004 0.779235 8.11672 0.779235C5.86035 0.779235 3.60354 0.779235 1.34717 0.779235C0.974849 0.779235 0.867026 0.897741 0.867026 1.30743C0.867026 6.10473 0.867026 10.902 0.867026 15.6993C0.867026 16.0994 0.976169 16.2212 1.33617 16.2212C3.60354 16.2217 5.87135 16.2217 8.13872 16.2212C8.48992 16.2212 8.59994 16.0994 8.59994 15.7114C8.59994 13.3094 8.59994 10.9078 8.59994 8.5058ZM11.2132 3.8657C11.2132 4.3968 11.2132 4.89936 11.2132 5.40482C11.6318 5.40482 12.0358 5.40482 12.4618 5.40482C12.3095 4.90033 12.1634 4.41035 12.0116 3.92181C12.0032 3.89521 11.953 3.8686 11.9218 3.86812C11.6872 3.86377 11.4526 3.8657 11.2132 3.8657Z" fill="#979797"/>
<path d="M4.74613 1.54831C5.64084 1.54831 6.53512 1.54831 7.42983 1.54831C7.77751 1.54831 7.89941 1.67842 7.89941 2.05377C7.89985 3.77864 7.89985 5.50398 7.89941 7.22885C7.89941 7.59259 7.77267 7.73044 7.43951 7.73044C5.6338 7.73092 3.82852 7.73092 2.02281 7.73044C1.69494 7.73044 1.57479 7.59839 1.57479 7.23997C1.57435 5.50302 1.57435 3.76558 1.57479 2.02862C1.57479 1.67794 1.69406 1.54879 2.01313 1.54879C2.92413 1.54831 3.83513 1.54831 4.74613 1.54831ZM7.17898 6.94347C7.17898 5.39273 7.17898 3.86425 7.17898 2.32996C5.54006 2.32996 3.91346 2.32996 2.28775 2.32996C2.28775 3.87586 2.28775 5.41015 2.28775 6.94347C3.92403 6.94347 5.5471 6.94347 7.17898 6.94347Z" fill="#979797"/>
<path d="M4.74526 11.5864C3.82282 11.5864 2.90037 11.5874 1.97837 11.5859C1.73412 11.5855 1.59109 11.4553 1.57788 11.2333C1.56512 11.019 1.69583 10.8449 1.89079 10.8207C1.94493 10.814 2.00038 10.8173 2.05539 10.8173C3.83954 10.8173 5.62413 10.8173 7.40828 10.8173C7.44657 10.8173 7.4853 10.8164 7.52358 10.8178C7.74539 10.8265 7.89987 10.9886 7.89635 11.2091C7.89282 11.4229 7.74407 11.583 7.52887 11.5845C6.84276 11.5888 6.1562 11.5864 5.4701 11.5869C5.22848 11.5869 4.98687 11.5869 4.74526 11.5864Z" fill="#979797"/>
<path d="M2.45585 9.26853C2.2807 9.26853 2.1051 9.27337 1.93038 9.26708C1.71385 9.25934 1.57566 9.10456 1.57654 8.88303C1.57786 8.66585 1.72265 8.50527 1.93566 8.50188C2.2807 8.49656 2.62573 8.49608 2.97032 8.50237C3.17849 8.50575 3.32856 8.6765 3.32724 8.88884C3.32592 9.10263 3.17849 9.26079 2.9646 9.26756C2.79561 9.27289 2.62573 9.26853 2.45585 9.26853Z" fill="#979797"/>
<path d="M7.16184 8.5005C7.33172 8.5005 7.5016 8.49663 7.67103 8.50196C7.88096 8.50873 8.03279 8.67222 8.03455 8.88359C8.03631 9.09448 7.88536 9.26329 7.67543 9.26716C7.3304 9.27296 6.98536 9.27296 6.64033 9.26716C6.42336 9.26377 6.28209 9.10705 6.28077 8.88843C6.27989 8.66448 6.42908 8.50873 6.65265 8.5005C6.66365 8.50002 6.67465 8.5005 6.68565 8.5005C6.84409 8.50002 7.00297 8.50002 7.16184 8.5005Z" fill="#979797"/>
<path d="M2.44879 10.4266C2.27363 10.4266 2.09803 10.4319 1.92331 10.4252C1.71558 10.4169 1.58003 10.2655 1.57695 10.0517C1.57387 9.83262 1.71602 9.66526 1.92639 9.66139C2.27671 9.65511 2.62746 9.65462 2.97778 9.66139C3.17803 9.66526 3.3237 9.83166 3.32766 10.0377C3.33162 10.252 3.18463 10.4179 2.97426 10.4261C2.7991 10.4319 2.62394 10.4271 2.44879 10.4266Z" fill="#979797"/>
<path d="M7.16657 9.65888C7.33073 9.65888 7.49532 9.65549 7.65948 9.65936C7.87997 9.66468 8.03576 9.82914 8.03444 10.0468C8.03268 10.2582 7.88217 10.4217 7.67048 10.4251C7.32545 10.4304 6.98041 10.4309 6.63537 10.4246C6.42017 10.4207 6.2789 10.2596 6.28066 10.0405C6.28198 9.82382 6.42809 9.66565 6.6411 9.65936C6.81581 9.65501 6.99141 9.65936 7.16657 9.65888Z" fill="#979797"/>
</g>
<defs>
<clipPath id="clip0_3_114">
<rect width="13" height="17" fill="white" transform="translate(0.166016)"/>
</clipPath>
</defs>
</svg>
