<svg width="13" height="16" viewBox="0 0 13 16" fill="none" xmlns="http://www.w3.org/2000/svg">
<path d="M6.18751 0.125C4.54707 0.126935 2.97438 0.779452 1.81442 1.93941C0.654459 3.09938 0.00194185 4.67207 6.58287e-06 6.3125C-0.00195817 7.65306 0.435933 8.95725 1.24651 10.025C1.24651 10.025 1.41526 10.2472 1.44282 10.2793L6.18751 15.875L10.9344 10.2764C10.9592 10.2466 11.1285 10.025 11.1285 10.025L11.1291 10.0233C11.9392 8.95603 12.3769 7.65245 12.375 6.3125C12.3731 4.67207 11.7206 3.09938 10.5606 1.93941C9.40063 0.779452 7.82794 0.126935 6.18751 0.125V0.125ZM6.18751 8.5625C5.7425 8.5625 5.30748 8.43054 4.93747 8.18331C4.56746 7.93607 4.27907 7.58467 4.10878 7.17354C3.93848 6.7624 3.89392 6.31 3.98074 5.87355C4.06756 5.43709 4.28185 5.03618 4.59652 4.72151C4.91118 4.40684 5.3121 4.19255 5.74855 4.10573C6.18501 4.01892 6.63741 4.06347 7.04854 4.23377C7.45968 4.40407 7.81108 4.69246 8.05831 5.06247C8.30555 5.43248 8.43751 5.86749 8.43751 6.3125C8.43676 6.90901 8.19947 7.48087 7.77767 7.90267C7.35588 8.32446 6.78402 8.56176 6.18751 8.5625V8.5625Z" fill="#282828"/>
</svg>
