<svg width="16" height="10" viewBox="0 0 16 10" fill="none" xmlns="http://www.w3.org/2000/svg">
<path d="M1.44675 1.22875L7.44675 4.45195C7.64835 4.55995 7.90915 4.61115 8.17155 4.61115C8.43395 4.61115 8.69475 4.55995 8.89635 4.45195L14.8963 1.22875C15.2875 1.01835 15.6571 0.199951 14.9395 0.199951H1.40435C0.68675 0.199951 1.05635 1.01835 1.44675 1.22875V1.22875ZM15.078 2.99115L8.89635 6.21275C8.62435 6.35515 8.43395 6.37195 8.17155 6.37195C7.90915 6.37195 7.71875 6.35515 7.44675 6.21275C7.17475 6.07035 1.74035 3.22155 1.29635 2.99035C0.98435 2.82715 0.98755 3.01835 0.98755 3.16555V8.99995C0.98755 9.33595 1.44035 9.79995 1.78755 9.79995H14.5875C14.9347 9.79995 15.3875 9.33595 15.3875 8.99995V3.16635C15.3875 3.01915 15.3908 2.82795 15.078 2.99115V2.99115Z" fill="#282828"/>
</svg>
